Coordinates
version=1
nRows=11
nColumns=42
inDegrees=yes

Units are S.I. units (second, meters, Newtons, ...)
If the header above contains a line with 'inDegrees', this indicates whether rotational values are in degrees (yes) or radians (no).

endheader
time	pelvis_tilt	pelvis_list	pelvis_rotation	pelvis_tx	pelvis_ty	pelvis_tz	hip_flexion_r	hip_adduction_r	hip_rotation_r	knee_angle_r	knee_adduction_r	knee_angle_r_beta	ankle_angle_r	subtalar_angle_r	mtp_angle_r	hip_flexion_l	hip_adduction_l	hip_rotation_l	knee_angle_l	knee_adduction_l	knee_angle_l_beta	ankle_angle_l	subtalar_angle_l	mtp_angle_l	lumbar_extension	lumbar_bending	lumbar_rotation	arm_flex_r	arm_add_r	arm_rot_r	elbow_flex_r	pro_sup_r	wrist_flex_r	wrist_dev_r	arm_flex_l	arm_add_l	arm_rot_l	elbow_flex_l	pro_sup_l	wrist_flex_l	wrist_dev_l
      1.20000000	     21.73775740	      3.75437646	      0.07234910	     -0.79995459	      0.90516516	     -0.06477576	      6.42689912	    -10.36026221	    -20.03148694	     63.54725505	     -9.72373207	      1.10910883	     15.44507258	     -9.92290691	     -7.71324753	    -13.20571490	      8.17625926	     -8.02205923	     27.91859224	     -0.49908376	      0.48727136	     23.83480821	     -1.94166337	     -7.71324753	    -43.46155611	     -3.34532378	     -2.86697646	      5.01643552	     -4.49647914	    -25.09985293	     29.19800829	     90.00000001	      0.00000000	      0.00000000	     11.09870840	     -6.93090725	    -27.18901120	     38.24096303	     90.00000001	      0.00000000	      0.00000000
      1.21000000	     21.84892730	      3.69620729	      0.08485487	     -0.79246196	      0.90529252	     -0.06512074	      7.13737854	    -10.19824993	    -20.22368432	     61.46902742	     -9.51256942	      1.07283692	     15.20603637	    -10.00401413	     -7.69876764	    -14.21118967	      8.18315058	     -8.36537726	     27.22858251	     -0.74545246	      0.47522842	     24.67925377	     -0.85286237	     -7.69876764	    -43.61997750	     -3.23327680	     -2.98318409	      4.84854068	     -4.36999519	    -26.87286999	     28.59622336	     90.00000001	      0.00000000	      0.00000000	     11.46294875	     -7.29108742	    -26.34657400	     38.22246284	     90.00000001	      0.00000000	      0.00000000
      1.22000000	     21.57757495	      3.84268722	      0.15284136	     -0.78538279	      0.90457738	     -0.06561566	      8.35350488	    -10.36870378	    -20.22065765	     59.62502999	     -9.05043565	      1.04065309	     15.09832256	     -9.84868525	     -7.69502365	    -14.53913507	      8.38774525	     -8.67895916	     26.98138997	     -0.97974998	      0.47091409	     25.01699635	     -0.54667533	     -7.69502365	    -43.45500853	     -3.29335031	     -3.26935557	      4.42630474	     -4.36960306	    -27.03339410	     28.42128407	     90.00000001	      0.00000000	      0.00000000	     11.91078620	     -7.56301674	    -26.14577888	     38.35359284	     90.00000001	      0.00000000	      0.00000000
      1.23000000	     21.54031400	      3.88739840	      0.20563342	     -0.77802741	      0.90423021	     -0.06601444	      9.13227121	    -10.47890375	    -20.49172455	     57.54751440	     -8.60161695	      1.00439360	     14.81828354	     -9.92808645	     -7.69036981	    -15.25972471	      8.44227080	     -9.04930610	     26.53288535	     -1.15008775	      0.46308621	     25.50628325	      0.27081626	     -7.69036981	    -43.48084660	     -3.25915138	     -3.45305218	      4.05380032	     -4.38917157	    -27.55191204	     28.11248967	     90.00000001	      0.00000000	      0.00000000	     12.32538996	     -7.86692915	    -25.79003270	     38.34334879	     90.00000001	      0.00000000	      0.00000000
      1.24000000	     21.11657494	      4.11159235	      0.29562736	     -0.77099481	      0.90305215	     -0.06633783	     10.43953194	    -10.83678581	    -20.60387024	     55.72319223	     -8.01121902	      0.97255317	     14.65344251	     -9.63857567	     -7.68769506	    -15.32746849	      8.52769433	     -9.44779482	     26.52970166	     -1.05343906	      0.46303064	     25.55169718	      0.54727734	     -7.68769506	    -43.16399485	     -3.42913936	     -3.73375973	      3.50929339	     -4.37218341	    -27.66503218	     28.12135511	     90.00000001	      0.00000000	      0.00000000	     12.75101898	     -8.09921510	    -25.64136871	     38.64295647	     90.00000001	      0.00000000	      0.00000000
      1.25000000	     21.37712854	      3.76516166	      0.50893354	     -0.76346557	      0.90317004	     -0.06638370	     10.52801309	    -10.29494563	    -21.50683115	     53.10160819	     -7.97857957	      0.92679790	     14.12174334	     -9.75887176	     -7.67444358	    -16.22061203	      7.85001456	    -11.11004565	     26.40160988	     -1.47718913	      0.46079502	     26.92031967	      4.02252806	     -7.67444358	    -43.48570544	     -2.98709560	     -3.71934000	      3.35392784	     -4.21756399	    -29.84486511	     27.74748416	     90.00000001	      0.00000000	      0.00000000	     13.15849915	     -8.45163161	    -24.75462582	     38.66642730	     90.00000001	      0.00000000	      0.00000000
      1.26000000	     20.91383934	      4.03107173	      0.60464834	     -0.75640080	      0.90181085	     -0.06668508	     11.75222560	    -10.68799601	    -21.64955154	     51.20651714	     -7.37178847	      0.89372232	     14.01215361	     -9.47317383	     -7.67189612	    -16.25345927	      8.05773861	    -11.50260137	     26.35675279	     -1.55123259	      0.46001212	     27.03404542	      4.21809392	     -7.67189612	    -43.11944645	     -3.19081377	     -4.01251334	      2.82273126	     -4.22473010	    -29.88110078	     27.69993658	     90.00000001	      0.00000000	      0.00000000	     13.57402261	     -8.67864391	    -24.63481550	     38.87312252	     90.00000001	      0.00000000	      0.00000000
      1.27000000	     21.06165358	      3.77645072	      0.85651958	     -0.74890259	      0.90158974	     -0.06675966	     11.87385029	    -10.32097040	    -22.58123566	     48.63927591	     -7.20584176	      0.84891551	     13.74519358	     -8.96195973	     -7.66019725	    -16.98960399	      7.47111441	    -13.06404550	     26.27344814	     -1.97130150	      0.45855818	     28.20706095	      7.34555956	     -7.66019725	    -43.32321762	     -2.82311516	     -4.05968352	      2.54485400	     -4.17943086	    -31.10491451	     27.40629561	     90.00000001	      0.00000000	      0.00000000	     14.06237420	     -8.95819898	    -24.14028059	     38.78357760	     90.00000001	      0.00000000	      0.00000000
      1.28000000	     20.89679003	      3.82418145	      1.05304028	     -0.74162674	      0.90075865	     -0.06688997	     12.46067953	    -10.36775933	    -23.04512026	     46.41299305	     -6.73529223	      0.81005954	     13.58558967	     -8.37556957	     -7.65322452	    -17.40056383	      7.33049476	    -13.82542658	     26.14858608	     -2.16417743	      0.45637892	     28.75087152	      8.76387121	     -7.65322452	    -43.24133402	     -2.77696439	     -4.25569947	      2.13965840	     -4.17480558	    -31.55099073	     27.17416001	     90.00000001	      0.00000000	      0.00000000	     14.56154432	     -9.20223662	    -23.87339179	     38.72954287	     90.00000001	      0.00000000	      0.00000000
      1.29000000	     20.65795011	      3.80151119	      1.24810026	     -0.73428700	      0.89961796	     -0.06693599	     13.13080822	    -10.36104827	    -23.83867108	     44.23339331	     -6.43912138	      0.77201835	     13.62323666	     -7.15210643	     -7.64111544	    -17.53336469	      7.01119284	    -15.28492403	     26.41255002	     -2.54901198	      0.46098596	     29.56652062	     11.03534680	     -7.64111544	    -43.05914549	     -2.67286584	     -4.39441724	      1.74342182	     -4.13855051	    -32.37866139	     27.08687334	     90.00000001	      0.00000000	      0.00000000	     14.94046306	     -9.41174777	    -23.58346882	     38.87325749	     90.00000001	      0.00000000	      0.00000000
      1.30000000	     20.14196700	      4.09197744	      1.38118807	     -0.72716294	      0.89795980	     -0.06678800	     14.28953777	    -10.80946191	    -24.05105453	     42.63304241	     -5.74507374	      0.74408696	     13.49642511	     -6.82148765	     -7.63928529	    -17.50412787	      7.12190759	    -15.63520869	     26.42750401	     -2.47552799	      0.46124696	     29.54557418	     11.03816042	     -7.63928529	    -42.64527675	     -2.95647610	     -4.62355429	      1.17254883	     -4.08822169	    -32.37807732	     27.08615380	     90.00000001	      0.00000000	      0.00000000	     15.37759142	     -9.62955890	    -23.49205944	     39.15170403	     90.00000001	      0.00000000	      0.00000000
